<?xml version="1.0" encoding="UTF-8" standalone="no"?>
<!DOCTYPE svg PUBLIC "-//W3C//DTD SVG 1.1//EN"
 "http://www.w3.org/Graphics/SVG/1.1/DTD/svg11.dtd">
<!-- Generated by graphviz version 2.38.0 (20140413.2041)
 -->
<!-- Title: G Pages: 1 -->
<svg width="1047pt" height="2102pt"
 viewBox="0.00 0.00 1047.46 2102.00" xmlns="http://www.w3.org/2000/svg" xmlns:xlink="http://www.w3.org/1999/xlink">
<g id="graph0" class="graph" transform="scale(1 1) rotate(0) translate(4 2098)">
<title>G</title>
<polygon fill="white" stroke="none" points="-4,4 -4,-2098 1043.46,-2098 1043.46,4 -4,4"/>
<g id="clust1" class="cluster"><title>cluster_Global</title>
<path fill="none" stroke="gray" d="M20,-422C20,-422 1019.46,-422 1019.46,-422 1025.46,-422 1031.46,-428 1031.46,-434 1031.46,-434 1031.46,-2074 1031.46,-2074 1031.46,-2080 1025.46,-2086 1019.46,-2086 1019.46,-2086 20,-2086 20,-2086 14,-2086 8,-2080 8,-2074 8,-2074 8,-434 8,-434 8,-428 14,-422 20,-422"/>
<text text-anchor="middle" x="519.728" y="-2073.2" font-family="Times,serif" font-size="11.00" fill="gray">Global</text>
</g>
<g id="clust2" class="cluster"><title>cluster_\Teknoo</title>
<path fill="none" stroke="gray" d="M28,-430C28,-430 1011.46,-430 1011.46,-430 1017.46,-430 1023.46,-436 1023.46,-442 1023.46,-442 1023.46,-2046 1023.46,-2046 1023.46,-2052 1017.46,-2058 1011.46,-2058 1011.46,-2058 28,-2058 28,-2058 22,-2058 16,-2052 16,-2046 16,-2046 16,-442 16,-442 16,-436 22,-430 28,-430"/>
<text text-anchor="middle" x="519.728" y="-2045.2" font-family="Times,serif" font-size="11.00" fill="gray">Teknoo</text>
</g>
<g id="clust3" class="cluster"><title>cluster_\Teknoo\MangoPayBundle</title>
<path fill="none" stroke="gray" d="M36,-438C36,-438 1003.46,-438 1003.46,-438 1009.46,-438 1015.46,-444 1015.46,-450 1015.46,-450 1015.46,-2018 1015.46,-2018 1015.46,-2024 1009.46,-2030 1003.46,-2030 1003.46,-2030 36,-2030 36,-2030 30,-2030 24,-2024 24,-2018 24,-2018 24,-450 24,-450 24,-444 30,-438 36,-438"/>
<text text-anchor="middle" x="519.728" y="-2017.2" font-family="Times,serif" font-size="11.00" fill="gray">MangoPayBundle</text>
</g>
<g id="clust4" class="cluster"><title>cluster_\Teknoo\MangoPayBundle\Entity</title>
<path fill="none" stroke="gray" d="M44,-1652C44,-1652 995.456,-1652 995.456,-1652 1001.46,-1652 1007.46,-1658 1007.46,-1664 1007.46,-1664 1007.46,-1990 1007.46,-1990 1007.46,-1996 1001.46,-2002 995.456,-2002 995.456,-2002 44,-2002 44,-2002 38,-2002 32,-1996 32,-1990 32,-1990 32,-1664 32,-1664 32,-1658 38,-1652 44,-1652"/>
<text text-anchor="middle" x="519.728" y="-1989.2" font-family="Times,serif" font-size="11.00" fill="gray">Entity</text>
</g>
<g id="clust5" class="cluster"><title>cluster_\Teknoo\MangoPayBundle\Entity\Interfaces</title>
<path fill="none" stroke="gray" d="M52,-1812C52,-1812 987.456,-1812 987.456,-1812 993.456,-1812 999.456,-1818 999.456,-1824 999.456,-1824 999.456,-1962 999.456,-1962 999.456,-1968 993.456,-1974 987.456,-1974 987.456,-1974 52,-1974 52,-1974 46,-1974 40,-1968 40,-1962 40,-1962 40,-1824 40,-1824 40,-1818 46,-1812 52,-1812"/>
<text text-anchor="middle" x="519.728" y="-1961.2" font-family="Times,serif" font-size="11.00" fill="gray">Interfaces</text>
</g>
<g id="clust6" class="cluster"><title>cluster_\Teknoo\MangoPayBundle\Entity\Interfaces\User</title>
<path fill="none" stroke="gray" d="M60,-1820C60,-1820 979.456,-1820 979.456,-1820 985.456,-1820 991.456,-1826 991.456,-1832 991.456,-1832 991.456,-1934 991.456,-1934 991.456,-1940 985.456,-1946 979.456,-1946 979.456,-1946 60,-1946 60,-1946 54,-1946 48,-1940 48,-1934 48,-1934 48,-1832 48,-1832 48,-1826 54,-1820 60,-1820"/>
<text text-anchor="middle" x="519.728" y="-1933.2" font-family="Times,serif" font-size="11.00" fill="gray">User</text>
</g>
<g id="clust7" class="cluster"><title>cluster_\Teknoo\MangoPayBundle\Exception</title>
<path fill="none" stroke="gray" d="M811.956,-1168C811.956,-1168 975.956,-1168 975.956,-1168 981.956,-1168 987.956,-1174 987.956,-1180 987.956,-1180 987.956,-1336 987.956,-1336 987.956,-1342 981.956,-1348 975.956,-1348 975.956,-1348 811.956,-1348 811.956,-1348 805.956,-1348 799.956,-1342 799.956,-1336 799.956,-1336 799.956,-1180 799.956,-1180 799.956,-1174 805.956,-1168 811.956,-1168"/>
<text text-anchor="middle" x="893.956" y="-1335.2" font-family="Times,serif" font-size="11.00" fill="gray">Exception</text>
</g>
<g id="clust8" class="cluster"><title>cluster_\Teknoo\MangoPayBundle\Service</title>
<path fill="none" stroke="gray" d="M388.978,-1356C388.978,-1356 975.956,-1356 975.956,-1356 981.956,-1356 987.956,-1362 987.956,-1368 987.956,-1368 987.956,-1632 987.956,-1632 987.956,-1638 981.956,-1644 975.956,-1644 975.956,-1644 388.978,-1644 388.978,-1644 382.978,-1644 376.978,-1638 376.978,-1632 376.978,-1632 376.978,-1368 376.978,-1368 376.978,-1362 382.978,-1356 388.978,-1356"/>
<text text-anchor="middle" x="682.467" y="-1631.2" font-family="Times,serif" font-size="11.00" fill="gray">Service</text>
</g>
<g id="clust9" class="cluster"><title>cluster_\Teknoo\MangoPayBundle\Service\Interfaces</title>
<path fill="none" stroke="gray" d="M396.978,-1544C396.978,-1544 560.978,-1544 560.978,-1544 566.978,-1544 572.978,-1550 572.978,-1556 572.978,-1556 572.978,-1604 572.978,-1604 572.978,-1610 566.978,-1616 560.978,-1616 560.978,-1616 396.978,-1616 396.978,-1616 390.978,-1616 384.978,-1610 384.978,-1604 384.978,-1604 384.978,-1556 384.978,-1556 384.978,-1550 390.978,-1544 396.978,-1544"/>
<text text-anchor="middle" x="478.978" y="-1603.2" font-family="Times,serif" font-size="11.00" fill="gray">Interfaces</text>
</g>
<g id="clust10" class="cluster"><title>cluster_\Teknoo\MangoPayBundle\DependencyInjection</title>
<path fill="none" stroke="gray" d="M801.956,-1034C801.956,-1034 985.956,-1034 985.956,-1034 991.956,-1034 997.956,-1040 997.956,-1046 997.956,-1046 997.956,-1148 997.956,-1148 997.956,-1154 991.956,-1160 985.956,-1160 985.956,-1160 801.956,-1160 801.956,-1160 795.956,-1160 789.956,-1154 789.956,-1148 789.956,-1148 789.956,-1046 789.956,-1046 789.956,-1040 795.956,-1034 801.956,-1034"/>
<text text-anchor="middle" x="893.956" y="-1147.2" font-family="Times,serif" font-size="11.00" fill="gray">DependencyInjection</text>
</g>
<g id="clust11" class="cluster"><title>cluster_\Teknoo\MangoPayBundle\Event</title>
<path fill="none" stroke="gray" d="M832.456,-846C832.456,-846 955.456,-846 955.456,-846 961.456,-846 967.456,-852 967.456,-858 967.456,-858 967.456,-1014 967.456,-1014 967.456,-1020 961.456,-1026 955.456,-1026 955.456,-1026 832.456,-1026 832.456,-1026 826.456,-1026 820.456,-1020 820.456,-1014 820.456,-1014 820.456,-858 820.456,-858 820.456,-852 826.456,-846 832.456,-846"/>
<text text-anchor="middle" x="893.956" y="-1013.2" font-family="Times,serif" font-size="11.00" fill="gray">Event</text>
</g>
<g id="clust12" class="cluster"><title>cluster_\Teknoo\MangoPayBundle\Controller</title>
<path fill="none" stroke="gray" d="M828.956,-766C828.956,-766 958.956,-766 958.956,-766 964.956,-766 970.956,-772 970.956,-778 970.956,-778 970.956,-826 970.956,-826 970.956,-832 964.956,-838 958.956,-838 958.956,-838 828.956,-838 828.956,-838 822.956,-838 816.956,-832 816.956,-826 816.956,-826 816.956,-778 816.956,-778 816.956,-772 822.956,-766 828.956,-766"/>
<text text-anchor="middle" x="893.956" y="-825.2" font-family="Times,serif" font-size="11.00" fill="gray">Controller</text>
</g>
<g id="clust13" class="cluster"><title>cluster_\Teknoo\MangoPayBundle\StorageStrategy</title>
<path fill="none" stroke="gray" d="M848.956,-686C848.956,-686 938.956,-686 938.956,-686 944.956,-686 950.956,-692 950.956,-698 950.956,-698 950.956,-746 950.956,-746 950.956,-752 944.956,-758 938.956,-758 938.956,-758 848.956,-758 848.956,-758 842.956,-758 836.956,-752 836.956,-746 836.956,-746 836.956,-698 836.956,-698 836.956,-692 842.956,-686 848.956,-686"/>
<text text-anchor="middle" x="893.956" y="-745.2" font-family="Times,serif" font-size="11.00" fill="gray">StorageStrategy</text>
</g>
<g id="clust14" class="cluster"><title>cluster_\Teknoo\MangoPayBundle\Transcriber</title>
<path fill="none" stroke="gray" d="M838.956,-606C838.956,-606 948.956,-606 948.956,-606 954.956,-606 960.956,-612 960.956,-618 960.956,-618 960.956,-666 960.956,-666 960.956,-672 954.956,-678 948.956,-678 948.956,-678 838.956,-678 838.956,-678 832.956,-678 826.956,-672 826.956,-666 826.956,-666 826.956,-618 826.956,-618 826.956,-612 832.956,-606 838.956,-606"/>
<text text-anchor="middle" x="893.956" y="-665.2" font-family="Times,serif" font-size="11.00" fill="gray">Transcriber</text>
</g>
<g id="clust15" class="cluster"><title>cluster_\Teknoo\MangoPayBundle\Form</title>
<path fill="none" stroke="gray" d="M854.456,-490C854.456,-490 933.456,-490 933.456,-490 939.456,-490 945.456,-496 945.456,-502 945.456,-502 945.456,-586 945.456,-586 945.456,-592 939.456,-598 933.456,-598 933.456,-598 854.456,-598 854.456,-598 848.456,-598 842.456,-592 842.456,-586 842.456,-586 842.456,-502 842.456,-502 842.456,-496 848.456,-490 854.456,-490"/>
<text text-anchor="middle" x="893.956" y="-585.2" font-family="Times,serif" font-size="11.00" fill="gray">Form</text>
</g>
<g id="clust16" class="cluster"><title>cluster_\Teknoo\MangoPayBundle\Form\Type</title>
<path fill="none" stroke="gray" d="M862.456,-498C862.456,-498 925.456,-498 925.456,-498 931.456,-498 937.456,-504 937.456,-510 937.456,-510 937.456,-558 937.456,-558 937.456,-564 931.456,-570 925.456,-570 925.456,-570 862.456,-570 862.456,-570 856.456,-570 850.456,-564 850.456,-558 850.456,-558 850.456,-510 850.456,-510 850.456,-504 856.456,-498 862.456,-498"/>
<text text-anchor="middle" x="893.956" y="-557.2" font-family="Times,serif" font-size="11.00" fill="gray">Type</text>
</g>
<!-- \\Teknoo\\MangoPayBundle\\Entity\\Interfaces\\User\\UserInterface -->
<g id="node1" class="node"><title>\\Teknoo\\MangoPayBundle\\Entity\\Interfaces\\User\\UserInterface</title>
<polygon fill="none" stroke="black" points="160,-1891 56,-1891 56,-1855 160,-1855 160,-1891"/>
<text text-anchor="middle" x="108" y="-1870.2" font-family="Courier,monospace" font-size="11.00">UserInterface</text>
</g>
<!-- \\Teknoo\\MangoPayBundle\\Entity\\Interfaces\\User\\AddressInterface -->
<g id="node2" class="node"><title>\\Teknoo\\MangoPayBundle\\Entity\\Interfaces\\User\\AddressInterface</title>
<polygon fill="none" stroke="black" points="956.456,-1918 831.456,-1918 831.456,-1882 956.456,-1882 956.456,-1918"/>
<text text-anchor="middle" x="893.956" y="-1897.2" font-family="Courier,monospace" font-size="11.00">AddressInterface</text>
</g>
<!-- \\Teknoo\\MangoPayBundle\\Entity\\Interfaces\\User\\NaturalUserInterface -->
<g id="node3" class="node"><title>\\Teknoo\\MangoPayBundle\\Entity\\Interfaces\\User\\NaturalUserInterface</title>
<polygon fill="none" stroke="black" points="554.978,-1918 402.978,-1918 402.978,-1882 554.978,-1882 554.978,-1918"/>
<text text-anchor="middle" x="478.978" y="-1897.2" font-family="Courier,monospace" font-size="11.00">NaturalUserInterface</text>
</g>
<!-- \\Teknoo\\MangoPayBundle\\Entity\\Interfaces\\User\\NaturalUserInterface&#45;&gt;\\Teknoo\\MangoPayBundle\\Entity\\Interfaces\\User\\UserInterface -->
<g id="edge13" class="edge"><title>\\Teknoo\\MangoPayBundle\\Entity\\Interfaces\\User\\NaturalUserInterface&#45;&gt;\\Teknoo\\MangoPayBundle\\Entity\\Interfaces\\User\\UserInterface</title>
<path fill="none" stroke="black" d="M402.865,-1894.5C334.303,-1889.49 234.198,-1882.16 170.334,-1877.49"/>
<polygon fill="none" stroke="black" points="170.246,-1873.97 160.017,-1876.73 169.735,-1880.95 170.246,-1873.97"/>
</g>
<!-- \\Teknoo\\MangoPayBundle\\Entity\\Interfaces\\User\\FullNaturalUserInterface -->
<g id="node4" class="node"><title>\\Teknoo\\MangoPayBundle\\Entity\\Interfaces\\User\\FullNaturalUserInterface</title>
<polygon fill="none" stroke="black" points="983.456,-1864 804.456,-1864 804.456,-1828 983.456,-1828 983.456,-1864"/>
<text text-anchor="middle" x="893.956" y="-1843.2" font-family="Courier,monospace" font-size="11.00">FullNaturalUserInterface</text>
</g>
<!-- \\Teknoo\\MangoPayBundle\\Entity\\Interfaces\\User\\FullNaturalUserInterface&#45;&gt;\\Teknoo\\MangoPayBundle\\Entity\\Interfaces\\User\\NaturalUserInterface -->
<g id="edge14" class="edge"><title>\\Teknoo\\MangoPayBundle\\Entity\\Interfaces\\User\\FullNaturalUserInterface&#45;&gt;\\Teknoo\\MangoPayBundle\\Entity\\Interfaces\\User\\NaturalUserInterface</title>
<path fill="none" stroke="black" d="M804.246,-1861.2C778.988,-1865.3 751.421,-1869.55 725.956,-1873 672.711,-1880.22 612.779,-1886.83 565.404,-1891.7"/>
<polygon fill="none" stroke="black" points="564.779,-1888.25 555.186,-1892.75 565.49,-1895.21 564.779,-1888.25"/>
</g>
<!-- \\Teknoo\\MangoPayBundle\\Entity\\Interfaces\\User\\LegalUserInterface -->
<g id="node5" class="node"><title>\\Teknoo\\MangoPayBundle\\Entity\\Interfaces\\User\\LegalUserInterface</title>
<polygon fill="none" stroke="black" points="547.978,-1864 409.978,-1864 409.978,-1828 547.978,-1828 547.978,-1864"/>
<text text-anchor="middle" x="478.978" y="-1843.2" font-family="Courier,monospace" font-size="11.00">LegalUserInterface</text>
</g>
<!-- \\Teknoo\\MangoPayBundle\\Entity\\Interfaces\\User\\LegalUserInterface&#45;&gt;\\Teknoo\\MangoPayBundle\\Entity\\Interfaces\\User\\UserInterface -->
<g id="edge15" class="edge"><title>\\Teknoo\\MangoPayBundle\\Entity\\Interfaces\\User\\LegalUserInterface&#45;&gt;\\Teknoo\\MangoPayBundle\\Entity\\Interfaces\\User\\UserInterface</title>
<path fill="none" stroke="black" d="M409.872,-1850.98C341.285,-1856 236.426,-1863.68 170.349,-1868.51"/>
<polygon fill="none" stroke="black" points="169.807,-1865.04 160.089,-1869.26 170.318,-1872.02 169.807,-1865.04"/>
</g>
<!-- \\Teknoo\\MangoPayBundle\\Entity\\SecureFlowSession -->
<g id="node6" class="node"><title>\\Teknoo\\MangoPayBundle\\Entity\\SecureFlowSession</title>
<polygon fill="none" stroke="black" points="959.456,-1804 828.456,-1804 828.456,-1768 959.456,-1768 959.456,-1804"/>
<text text-anchor="middle" x="893.956" y="-1783.2" font-family="Courier,monospace" font-size="11.00">SecureFlowSession</text>
</g>
<!-- \\Teknoo\\MangoPayBundle\\Entity\\CardRegistrationResult -->
<g id="node7" class="node"><title>\\Teknoo\\MangoPayBundle\\Entity\\CardRegistrationResult</title>
<polygon fill="none" stroke="black" points="976.456,-1750 811.456,-1750 811.456,-1714 976.456,-1714 976.456,-1750"/>
<text text-anchor="middle" x="893.956" y="-1729.2" font-family="Courier,monospace" font-size="11.00">CardRegistrationResult</text>
</g>
<!-- \\Teknoo\\MangoPayBundle\\Entity\\CardRegistrationSession -->
<g id="node8" class="node"><title>\\Teknoo\\MangoPayBundle\\Entity\\CardRegistrationSession</title>
<polygon fill="none" stroke="black" points="979.956,-1696 807.956,-1696 807.956,-1660 979.956,-1660 979.956,-1696"/>
<text text-anchor="middle" x="893.956" y="-1675.2" font-family="Courier,monospace" font-size="11.00">CardRegistrationSession</text>
</g>
<!-- \\Teknoo\\MangoPayBundle\\Exception\\BadMangoReturnException -->
<g id="node9" class="node"><title>\\Teknoo\\MangoPayBundle\\Exception\\BadMangoReturnException</title>
<polygon fill="none" stroke="black" points="979.956,-1320 807.956,-1320 807.956,-1284 979.956,-1284 979.956,-1320"/>
<text text-anchor="middle" x="893.956" y="-1299.2" font-family="Courier,monospace" font-size="11.00">BadMangoReturnException</text>
</g>
<!-- \\InvalidArgumentException -->
<g id="node28" class="node"><title>\\InvalidArgumentException</title>
<ellipse fill="none" stroke="black" cx="478.978" cy="-396" rx="109.681" ry="18"/>
<text text-anchor="middle" x="478.978" y="-392.3" font-family="Times,serif" font-size="14.00" fill="gray">\InvalidArgumentException</text>
</g>
<!-- \\Teknoo\\MangoPayBundle\\Exception\\BadMangoReturnException&#45;&gt;\\InvalidArgumentException -->
<g id="edge1" class="edge"><title>\\Teknoo\\MangoPayBundle\\Exception\\BadMangoReturnException&#45;&gt;\\InvalidArgumentException</title>
<path fill="none" stroke="black" d="M807.833,-1287.21C801.339,-1283.9 795.26,-1279.88 789.956,-1275 524.739,-1030.85 486.375,-545.976 480.885,-424.235"/>
<polygon fill="none" stroke="black" points="484.381,-424.069 480.472,-414.221 477.387,-424.357 484.381,-424.069"/>
</g>
<!-- \\Teknoo\\MangoPayBundle\\Exception\\BadTypeException -->
<g id="node10" class="node"><title>\\Teknoo\\MangoPayBundle\\Exception\\BadTypeException</title>
<polygon fill="none" stroke="black" points="956.456,-1266 831.456,-1266 831.456,-1230 956.456,-1230 956.456,-1266"/>
<text text-anchor="middle" x="893.956" y="-1245.2" font-family="Courier,monospace" font-size="11.00">BadTypeException</text>
</g>
<!-- \\Teknoo\\MangoPayBundle\\Exception\\BadTypeException&#45;&gt;\\InvalidArgumentException -->
<g id="edge11" class="edge"><title>\\Teknoo\\MangoPayBundle\\Exception\\BadTypeException&#45;&gt;\\InvalidArgumentException</title>
<path fill="none" stroke="black" d="M831.295,-1241.83C816.362,-1237.8 801.419,-1231.34 789.956,-1221 538.174,-993.912 490.021,-541.786 481.626,-424.383"/>
<polygon fill="none" stroke="black" points="485.097,-423.827 480.932,-414.085 478.113,-424.298 485.097,-423.827"/>
</g>
<!-- \\Teknoo\\MangoPayBundle\\Exception\\BadMangoEntityException -->
<g id="node11" class="node"><title>\\Teknoo\\MangoPayBundle\\Exception\\BadMangoEntityException</title>
<polygon fill="none" stroke="black" points="979.956,-1212 807.956,-1212 807.956,-1176 979.956,-1176 979.956,-1212"/>
<text text-anchor="middle" x="893.956" y="-1191.2" font-family="Courier,monospace" font-size="11.00">BadMangoEntityException</text>
</g>
<!-- \\Teknoo\\MangoPayBundle\\Exception\\BadMangoEntityException&#45;&gt;\\InvalidArgumentException -->
<g id="edge12" class="edge"><title>\\Teknoo\\MangoPayBundle\\Exception\\BadMangoEntityException&#45;&gt;\\InvalidArgumentException</title>
<path fill="none" stroke="black" d="M807.76,-1176.25C801.322,-1172.85 795.274,-1168.81 789.956,-1164 555.18,-951.644 494.957,-536.498 482.698,-424.445"/>
<polygon fill="none" stroke="black" points="486.155,-423.856 481.628,-414.278 479.194,-424.589 486.155,-423.856"/>
</g>
<!-- \\Teknoo\\MangoPayBundle\\Service\\Interfaces\\StorageServiceInterface -->
<g id="node12" class="node"><title>\\Teknoo\\MangoPayBundle\\Service\\Interfaces\\StorageServiceInterface</title>
<polygon fill="none" stroke="black" points="564.978,-1588 392.978,-1588 392.978,-1552 564.978,-1552 564.978,-1588"/>
<text text-anchor="middle" x="478.978" y="-1567.2" font-family="Courier,monospace" font-size="11.00">StorageServiceInterface</text>
</g>
<!-- \\Teknoo\\MangoPayBundle\\Service\\SessionStorageService -->
<g id="node13" class="node"><title>\\Teknoo\\MangoPayBundle\\Service\\SessionStorageService</title>
<polygon fill="none" stroke="black" points="972.956,-1616 814.956,-1616 814.956,-1580 972.956,-1580 972.956,-1616"/>
<text text-anchor="middle" x="893.956" y="-1595.2" font-family="Courier,monospace" font-size="11.00">SessionStorageService</text>
</g>
<!-- \\Teknoo\\MangoPayBundle\\Service\\SessionStorageService&#45;&gt;\\Teknoo\\MangoPayBundle\\Service\\Interfaces\\StorageServiceInterface -->
<g id="edge2" class="edge"><title>\\Teknoo\\MangoPayBundle\\Service\\SessionStorageService&#45;&gt;\\Teknoo\\MangoPayBundle\\Service\\Interfaces\\StorageServiceInterface</title>
<path fill="none" stroke="black" stroke-dasharray="1,5" d="M814.793,-1592.7C746.787,-1588.09 648.014,-1581.39 575.367,-1576.47"/>
<polygon fill="none" stroke="black" points="575.509,-1572.97 565.295,-1575.78 575.036,-1579.95 575.509,-1572.97"/>
</g>
<!-- \\Teknoo\\MangoPayBundle\\Service\\CardRegistrationService -->
<g id="node14" class="node"><title>\\Teknoo\\MangoPayBundle\\Service\\CardRegistrationService</title>
<polygon fill="none" stroke="black" points="979.956,-1562 807.956,-1562 807.956,-1526 979.956,-1526 979.956,-1562"/>
<text text-anchor="middle" x="893.956" y="-1541.2" font-family="Courier,monospace" font-size="11.00">CardRegistrationService</text>
</g>
<!-- \\Teknoo\\MangoPayBundle\\Service\\SecureFlowService -->
<g id="node15" class="node"><title>\\Teknoo\\MangoPayBundle\\Service\\SecureFlowService</title>
<polygon fill="none" stroke="black" points="959.456,-1508 828.456,-1508 828.456,-1472 959.456,-1472 959.456,-1508"/>
<text text-anchor="middle" x="893.956" y="-1487.2" font-family="Courier,monospace" font-size="11.00">SecureFlowService</text>
</g>
<!-- \\Teknoo\\MangoPayBundle\\Service\\UserService -->
<g id="node16" class="node"><title>\\Teknoo\\MangoPayBundle\\Service\\UserService</title>
<polygon fill="none" stroke="black" points="939.456,-1454 848.456,-1454 848.456,-1418 939.456,-1418 939.456,-1454"/>
<text text-anchor="middle" x="893.956" y="-1433.2" font-family="Courier,monospace" font-size="11.00">UserService</text>
</g>
<!-- \\Teknoo\\MangoPayBundle\\Service\\MangoApiService -->
<g id="node17" class="node"><title>\\Teknoo\\MangoPayBundle\\Service\\MangoApiService</title>
<polygon fill="none" stroke="black" points="952.956,-1400 834.956,-1400 834.956,-1364 952.956,-1364 952.956,-1400"/>
<text text-anchor="middle" x="893.956" y="-1379.2" font-family="Courier,monospace" font-size="11.00">MangoApiService</text>
</g>
<!-- \\Teknoo\\MangoPayBundle\\DependencyInjection\\UniAlteriMangoPayExtension -->
<g id="node18" class="node"><title>\\Teknoo\\MangoPayBundle\\DependencyInjection\\UniAlteriMangoPayExtension</title>
<polygon fill="none" stroke="black" points="989.956,-1132 797.956,-1132 797.956,-1096 989.956,-1096 989.956,-1132"/>
<text text-anchor="middle" x="893.956" y="-1111.2" font-family="Courier,monospace" font-size="11.00">UniAlteriMangoPayExtension</text>
</g>
<!-- \\Symfony\\Component\\HttpKernel\\DependencyInjection\\Extension -->
<g id="node29" class="node"><title>\\Symfony\\Component\\HttpKernel\\DependencyInjection\\Extension</title>
<ellipse fill="none" stroke="black" cx="478.978" cy="-342" rx="246.956" ry="18"/>
<text text-anchor="middle" x="478.978" y="-338.3" font-family="Times,serif" font-size="14.00" fill="gray">\Symfony\Component\HttpKernel\DependencyInjection\Extension</text>
</g>
<!-- \\Teknoo\\MangoPayBundle\\DependencyInjection\\UniAlteriMangoPayExtension&#45;&gt;\\Symfony\\Component\\HttpKernel\\DependencyInjection\\Extension -->
<g id="edge3" class="edge"><title>\\Teknoo\\MangoPayBundle\\DependencyInjection\\UniAlteriMangoPayExtension&#45;&gt;\\Symfony\\Component\\HttpKernel\\DependencyInjection\\Extension</title>
<path fill="none" stroke="black" d="M799.121,-1095.68C795.783,-1093.13 792.701,-1090.25 789.956,-1087 686.556,-964.653 838.064,-483.421 725.956,-369 721.007,-363.949 715.677,-359.435 710.036,-355.412"/>
<polygon fill="none" stroke="black" points="711.841,-352.41 701.557,-349.861 708.007,-358.267 711.841,-352.41"/>
</g>
<!-- \\Teknoo\\MangoPayBundle\\DependencyInjection\\Configuration -->
<g id="node19" class="node"><title>\\Teknoo\\MangoPayBundle\\DependencyInjection\\Configuration</title>
<polygon fill="none" stroke="black" points="945.956,-1078 841.956,-1078 841.956,-1042 945.956,-1042 945.956,-1078"/>
<text text-anchor="middle" x="893.956" y="-1057.2" font-family="Courier,monospace" font-size="11.00">Configuration</text>
</g>
<!-- \\Symfony\\Component\\Config\\Definition\\ConfigurationInterface -->
<g id="node32" class="node"><title>\\Symfony\\Component\\Config\\Definition\\ConfigurationInterface</title>
<ellipse fill="none" stroke="black" cx="478.978" cy="-288" rx="237.758" ry="18"/>
<text text-anchor="middle" x="478.978" y="-284.3" font-family="Times,serif" font-size="14.00" fill="gray">\Symfony\Component\Config\Definition\ConfigurationInterface</text>
</g>
<!-- \\Teknoo\\MangoPayBundle\\DependencyInjection\\Configuration&#45;&gt;\\Symfony\\Component\\Config\\Definition\\ConfigurationInterface -->
<g id="edge7" class="edge"><title>\\Teknoo\\MangoPayBundle\\DependencyInjection\\Configuration&#45;&gt;\\Symfony\\Component\\Config\\Definition\\ConfigurationInterface</title>
<path fill="none" stroke="black" stroke-dasharray="1,5" d="M841.762,-1056.98C822.687,-1053.16 802.616,-1045.39 789.956,-1030 688.619,-906.798 837.62,-428.926 725.956,-315 720.529,-309.463 714.645,-304.573 708.395,-300.265"/>
<polygon fill="none" stroke="black" points="709.978,-297.125 699.654,-294.746 706.241,-303.044 709.978,-297.125"/>
</g>
<!-- \\Teknoo\\MangoPayBundle\\Event\\MangoPayEvents -->
<g id="node20" class="node"><title>\\Teknoo\\MangoPayBundle\\Event\\MangoPayEvents</title>
<polygon fill="none" stroke="black" points="949.456,-998 838.456,-998 838.456,-962 949.456,-962 949.456,-998"/>
<text text-anchor="middle" x="893.956" y="-977.2" font-family="Courier,monospace" font-size="11.00">MangoPayEvents</text>
</g>
<!-- \\Teknoo\\MangoPayBundle\\Event\\RegistrationEvent -->
<g id="node21" class="node"><title>\\Teknoo\\MangoPayBundle\\Event\\RegistrationEvent</title>
<polygon fill="none" stroke="black" points="959.456,-944 828.456,-944 828.456,-908 959.456,-908 959.456,-944"/>
<text text-anchor="middle" x="893.956" y="-923.2" font-family="Courier,monospace" font-size="11.00">RegistrationEvent</text>
</g>
<!-- \\Symfony\\Component\\EventDispatcher\\Event -->
<g id="node30" class="node"><title>\\Symfony\\Component\\EventDispatcher\\Event</title>
<ellipse fill="none" stroke="black" cx="478.978" cy="-234" rx="173.569" ry="18"/>
<text text-anchor="middle" x="478.978" y="-230.3" font-family="Times,serif" font-size="14.00" fill="gray">\Symfony\Component\EventDispatcher\Event</text>
</g>
<!-- \\Teknoo\\MangoPayBundle\\Event\\RegistrationEvent&#45;&gt;\\Symfony\\Component\\EventDispatcher\\Event -->
<g id="edge4" class="edge"><title>\\Teknoo\\MangoPayBundle\\Event\\RegistrationEvent&#45;&gt;\\Symfony\\Component\\EventDispatcher\\Event</title>
<path fill="none" stroke="black" d="M828.272,-921.432C813.74,-917.35 799.745,-910.453 789.956,-899 697.379,-790.682 826.239,-362.225 725.956,-261 688.398,-223.089 629.373,-215.612 578.558,-217.96"/>
<polygon fill="none" stroke="black" points="578.289,-214.47 568.513,-218.554 578.702,-221.457 578.289,-214.47"/>
</g>
<!-- \\Teknoo\\MangoPayBundle\\Event\\SecureFlowEvent -->
<g id="node22" class="node"><title>\\Teknoo\\MangoPayBundle\\Event\\SecureFlowEvent</title>
<polygon fill="none" stroke="black" points="952.956,-890 834.956,-890 834.956,-854 952.956,-854 952.956,-890"/>
<text text-anchor="middle" x="893.956" y="-869.2" font-family="Courier,monospace" font-size="11.00">SecureFlowEvent</text>
</g>
<!-- \\Teknoo\\MangoPayBundle\\Event\\SecureFlowEvent&#45;&gt;\\Symfony\\Component\\EventDispatcher\\Event -->
<g id="edge6" class="edge"><title>\\Teknoo\\MangoPayBundle\\Event\\SecureFlowEvent&#45;&gt;\\Symfony\\Component\\EventDispatcher\\Event</title>
<path fill="none" stroke="black" d="M834.945,-867.27C818.093,-863.013 801.215,-855.407 789.956,-842 706.422,-742.531 817.821,-352.83 725.956,-261 688.427,-223.486 629.851,-215.886 579.274,-218.067"/>
<polygon fill="none" stroke="black" points="579.063,-214.574 569.274,-218.628 579.455,-221.563 579.063,-214.574"/>
</g>
<!-- \\Teknoo\\MangoPayBundle\\Controller\\MangoPayController -->
<g id="node23" class="node"><title>\\Teknoo\\MangoPayBundle\\Controller\\MangoPayController</title>
<polygon fill="none" stroke="black" points="962.956,-810 824.956,-810 824.956,-774 962.956,-774 962.956,-810"/>
<text text-anchor="middle" x="893.956" y="-789.2" font-family="Courier,monospace" font-size="11.00">MangoPayController</text>
</g>
<!-- \\Symfony\\Bundle\\FrameworkBundle\\Controller\\Controller -->
<g id="node31" class="node"><title>\\Symfony\\Bundle\\FrameworkBundle\\Controller\\Controller</title>
<ellipse fill="none" stroke="black" cx="478.978" cy="-180" rx="219.861" ry="18"/>
<text text-anchor="middle" x="478.978" y="-176.3" font-family="Times,serif" font-size="14.00" fill="gray">\Symfony\Bundle\FrameworkBundle\Controller\Controller</text>
</g>
<!-- \\Teknoo\\MangoPayBundle\\Controller\\MangoPayController&#45;&gt;\\Symfony\\Bundle\\FrameworkBundle\\Controller\\Controller -->
<g id="edge5" class="edge"><title>\\Teknoo\\MangoPayBundle\\Controller\\MangoPayController&#45;&gt;\\Symfony\\Bundle\\FrameworkBundle\\Controller\\Controller</title>
<path fill="none" stroke="black" d="M824.811,-784.224C811.538,-779.669 798.967,-772.674 789.956,-762 629.789,-572.263 902.012,-382.094 725.956,-207 718.835,-199.917 710.962,-193.903 702.536,-188.822"/>
<polygon fill="none" stroke="black" points="704.007,-185.635 693.562,-183.858 700.619,-191.761 704.007,-185.635"/>
</g>
<!-- \\Teknoo\\MangoPayBundle\\StorageStrategy\\LocalStorage -->
<g id="node24" class="node"><title>\\Teknoo\\MangoPayBundle\\StorageStrategy\\LocalStorage</title>
<polygon fill="none" stroke="black" points="942.956,-730 844.956,-730 844.956,-694 942.956,-694 942.956,-730"/>
<text text-anchor="middle" x="893.956" y="-709.2" font-family="Courier,monospace" font-size="11.00">LocalStorage</text>
</g>
<!-- \\MangoPay\\Libraries\\IStorageStrategy -->
<g id="node34" class="node"><title>\\MangoPay\\Libraries\\IStorageStrategy</title>
<ellipse fill="none" stroke="black" cx="478.978" cy="-126" rx="147.574" ry="18"/>
<text text-anchor="middle" x="478.978" y="-122.3" font-family="Times,serif" font-size="14.00" fill="gray">\MangoPay\Libraries\IStorageStrategy</text>
</g>
<!-- \\Teknoo\\MangoPayBundle\\StorageStrategy\\LocalStorage&#45;&gt;\\MangoPay\\Libraries\\IStorageStrategy -->
<g id="edge9" class="edge"><title>\\Teknoo\\MangoPayBundle\\StorageStrategy\\LocalStorage&#45;&gt;\\MangoPay\\Libraries\\IStorageStrategy</title>
<path fill="none" stroke="black" stroke-dasharray="1,5" d="M844.93,-709.346C825.05,-705.701 803.517,-697.973 789.956,-682 636.686,-501.46 894.341,-319.531 725.956,-153 686.867,-114.341 625.393,-107.585 573.681,-110.497"/>
<polygon fill="none" stroke="black" points="573.213,-107.021 563.478,-111.201 573.696,-114.004 573.213,-107.021"/>
</g>
<!-- \\Teknoo\\MangoPayBundle\\Transcriber\\UserTranscriber -->
<g id="node25" class="node"><title>\\Teknoo\\MangoPayBundle\\Transcriber\\UserTranscriber</title>
<polygon fill="none" stroke="black" points="952.956,-650 834.956,-650 834.956,-614 952.956,-614 952.956,-650"/>
<text text-anchor="middle" x="893.956" y="-629.2" font-family="Courier,monospace" font-size="11.00">UserTranscriber</text>
</g>
<!-- \\Teknoo\\MangoPayBundle\\Form\\Type\\CardType -->
<g id="node26" class="node"><title>\\Teknoo\\MangoPayBundle\\Form\\Type\\CardType</title>
<polygon fill="none" stroke="black" points="929.456,-542 858.456,-542 858.456,-506 929.456,-506 929.456,-542"/>
<text text-anchor="middle" x="893.956" y="-521.2" font-family="Courier,monospace" font-size="11.00">CardType</text>
</g>
<!-- \\Symfony\\Component\\Form\\AbstractType -->
<g id="node35" class="node"><title>\\Symfony\\Component\\Form\\AbstractType</title>
<ellipse fill="none" stroke="black" cx="478.978" cy="-72" rx="161.671" ry="18"/>
<text text-anchor="middle" x="478.978" y="-68.3" font-family="Times,serif" font-size="14.00" fill="gray">\Symfony\Component\Form\AbstractType</text>
</g>
<!-- \\Teknoo\\MangoPayBundle\\Form\\Type\\CardType&#45;&gt;\\Symfony\\Component\\Form\\AbstractType -->
<g id="edge10" class="edge"><title>\\Teknoo\\MangoPayBundle\\Form\\Type\\CardType&#45;&gt;\\Symfony\\Component\\Form\\AbstractType</title>
<path fill="none" stroke="black" d="M858.054,-525.941C835.481,-525.199 807.195,-520.176 789.956,-502 665.157,-370.413 857.245,-224.113 725.956,-99 688.204,-63.0236 630.949,-55.0944 581.174,-56.703"/>
<polygon fill="none" stroke="black" points="580.833,-53.2148 571.002,-57.1652 581.151,-60.2076 580.833,-53.2148"/>
</g>
<!-- \\Teknoo\\MangoPayBundle\\UniAlteriMangoPayBundle -->
<g id="node27" class="node"><title>\\Teknoo\\MangoPayBundle\\UniAlteriMangoPayBundle</title>
<polygon fill="none" stroke="black" points="979.956,-482 807.956,-482 807.956,-446 979.956,-446 979.956,-482"/>
<text text-anchor="middle" x="893.956" y="-461.2" font-family="Courier,monospace" font-size="11.00">UniAlteriMangoPayBundle</text>
</g>
<!-- \\Symfony\\Component\\HttpKernel\\Bundle\\Bundle -->
<g id="node33" class="node"><title>\\Symfony\\Component\\HttpKernel\\Bundle\\Bundle</title>
<ellipse fill="none" stroke="black" cx="478.978" cy="-18" rx="187.367" ry="18"/>
<text text-anchor="middle" x="478.978" y="-14.3" font-family="Times,serif" font-size="14.00" fill="gray">\Symfony\Component\HttpKernel\Bundle\Bundle</text>
</g>
<!-- \\Teknoo\\MangoPayBundle\\UniAlteriMangoPayBundle&#45;&gt;\\Symfony\\Component\\HttpKernel\\Bundle\\Bundle -->
<g id="edge8" class="edge"><title>\\Teknoo\\MangoPayBundle\\UniAlteriMangoPayBundle&#45;&gt;\\Symfony\\Component\\HttpKernel\\Bundle\\Bundle</title>
<path fill="none" stroke="black" d="M891.99,-445.877C887.39,-379.53 861.813,-148.37 725.956,-45 710.744,-33.4253 693.389,-25.0584 675.096,-19.134"/>
<polygon fill="none" stroke="black" points="676.034,-15.7615 665.45,-16.2545 674.031,-22.469 676.034,-15.7615"/>
</g>
</g>
</svg>
