<?xml version="1.0" encoding="UTF-8" standalone="no"?>
<!DOCTYPE svg PUBLIC "-//W3C//DTD SVG 1.1//EN"
 "http://www.w3.org/Graphics/SVG/1.1/DTD/svg11.dtd">
<!-- Generated by graphviz version 2.38.0 (20140413.2041)
 -->
<!-- Title: G Pages: 1 -->
<svg width="1023pt" height="2102pt"
 viewBox="0.00 0.00 1022.76 2102.00" xmlns="http://www.w3.org/2000/svg" xmlns:xlink="http://www.w3.org/1999/xlink">
<g id="graph0" class="graph" transform="scale(1 1) rotate(0) translate(4 2098)">
<title>G</title>
<polygon fill="white" stroke="none" points="-4,4 -4,-2098 1018.76,-2098 1018.76,4 -4,4"/>
<g id="clust1" class="cluster"><title>cluster_Global</title>
<path fill="none" stroke="gray" d="M20,-422C20,-422 994.758,-422 994.758,-422 1000.76,-422 1006.76,-428 1006.76,-434 1006.76,-434 1006.76,-2074 1006.76,-2074 1006.76,-2080 1000.76,-2086 994.758,-2086 994.758,-2086 20,-2086 20,-2086 14,-2086 8,-2080 8,-2074 8,-2074 8,-434 8,-434 8,-428 14,-422 20,-422"/>
<text text-anchor="middle" x="507.379" y="-2073.2" font-family="Times,serif" font-size="11.00" fill="gray">Global</text>
</g>
<g id="clust2" class="cluster"><title>cluster_\Teknoo</title>
<path fill="none" stroke="gray" d="M28,-430C28,-430 986.758,-430 986.758,-430 992.758,-430 998.758,-436 998.758,-442 998.758,-442 998.758,-2046 998.758,-2046 998.758,-2052 992.758,-2058 986.758,-2058 986.758,-2058 28,-2058 28,-2058 22,-2058 16,-2052 16,-2046 16,-2046 16,-442 16,-442 16,-436 22,-430 28,-430"/>
<text text-anchor="middle" x="507.379" y="-2045.2" font-family="Times,serif" font-size="11.00" fill="gray">Teknoo</text>
</g>
<g id="clust3" class="cluster"><title>cluster_\Teknoo\MangoPayBundle</title>
<path fill="none" stroke="gray" d="M36,-438C36,-438 978.758,-438 978.758,-438 984.758,-438 990.758,-444 990.758,-450 990.758,-450 990.758,-2018 990.758,-2018 990.758,-2024 984.758,-2030 978.758,-2030 978.758,-2030 36,-2030 36,-2030 30,-2030 24,-2024 24,-2018 24,-2018 24,-450 24,-450 24,-444 30,-438 36,-438"/>
<text text-anchor="middle" x="507.379" y="-2017.2" font-family="Times,serif" font-size="11.00" fill="gray">MangoPayBundle</text>
</g>
<g id="clust4" class="cluster"><title>cluster_\Teknoo\MangoPayBundle\Exception</title>
<path fill="none" stroke="gray" d="M787.258,-1168C787.258,-1168 951.258,-1168 951.258,-1168 957.258,-1168 963.258,-1174 963.258,-1180 963.258,-1180 963.258,-1336 963.258,-1336 963.258,-1342 957.258,-1348 951.258,-1348 951.258,-1348 787.258,-1348 787.258,-1348 781.258,-1348 775.258,-1342 775.258,-1336 775.258,-1336 775.258,-1180 775.258,-1180 775.258,-1174 781.258,-1168 787.258,-1168"/>
<text text-anchor="middle" x="869.258" y="-1335.2" font-family="Times,serif" font-size="11.00" fill="gray">Exception</text>
</g>
<g id="clust5" class="cluster"><title>cluster_\Teknoo\MangoPayBundle\Service</title>
<path fill="none" stroke="gray" d="M379.879,-1714C379.879,-1714 951.258,-1714 951.258,-1714 957.258,-1714 963.258,-1720 963.258,-1726 963.258,-1726 963.258,-1990 963.258,-1990 963.258,-1996 957.258,-2002 951.258,-2002 951.258,-2002 379.879,-2002 379.879,-2002 373.879,-2002 367.879,-1996 367.879,-1990 367.879,-1990 367.879,-1726 367.879,-1726 367.879,-1720 373.879,-1714 379.879,-1714"/>
<text text-anchor="middle" x="665.568" y="-1989.2" font-family="Times,serif" font-size="11.00" fill="gray">Service</text>
</g>
<g id="clust6" class="cluster"><title>cluster_\Teknoo\MangoPayBundle\Service\Interfaces</title>
<path fill="none" stroke="gray" d="M387.879,-1902C387.879,-1902 551.879,-1902 551.879,-1902 557.879,-1902 563.879,-1908 563.879,-1914 563.879,-1914 563.879,-1962 563.879,-1962 563.879,-1968 557.879,-1974 551.879,-1974 551.879,-1974 387.879,-1974 387.879,-1974 381.879,-1974 375.879,-1968 375.879,-1962 375.879,-1962 375.879,-1914 375.879,-1914 375.879,-1908 381.879,-1902 387.879,-1902"/>
<text text-anchor="middle" x="469.879" y="-1961.2" font-family="Times,serif" font-size="11.00" fill="gray">Interfaces</text>
</g>
<g id="clust7" class="cluster"><title>cluster_\Teknoo\MangoPayBundle\DependencyInjection</title>
<path fill="none" stroke="gray" d="M787.258,-1034C787.258,-1034 951.258,-1034 951.258,-1034 957.258,-1034 963.258,-1040 963.258,-1046 963.258,-1046 963.258,-1148 963.258,-1148 963.258,-1154 957.258,-1160 951.258,-1160 951.258,-1160 787.258,-1160 787.258,-1160 781.258,-1160 775.258,-1154 775.258,-1148 775.258,-1148 775.258,-1046 775.258,-1046 775.258,-1040 781.258,-1034 787.258,-1034"/>
<text text-anchor="middle" x="869.258" y="-1147.2" font-family="Times,serif" font-size="11.00" fill="gray">DependencyInjection</text>
</g>
<g id="clust8" class="cluster"><title>cluster_\Teknoo\MangoPayBundle\Controller</title>
<path fill="none" stroke="gray" d="M804.258,-954C804.258,-954 934.258,-954 934.258,-954 940.258,-954 946.258,-960 946.258,-966 946.258,-966 946.258,-1014 946.258,-1014 946.258,-1020 940.258,-1026 934.258,-1026 934.258,-1026 804.258,-1026 804.258,-1026 798.258,-1026 792.258,-1020 792.258,-1014 792.258,-1014 792.258,-966 792.258,-966 792.258,-960 798.258,-954 804.258,-954"/>
<text text-anchor="middle" x="869.258" y="-1013.2" font-family="Times,serif" font-size="11.00" fill="gray">Controller</text>
</g>
<g id="clust9" class="cluster"><title>cluster_\Teknoo\MangoPayBundle\StorageStrategy</title>
<path fill="none" stroke="gray" d="M824.258,-874C824.258,-874 914.258,-874 914.258,-874 920.258,-874 926.258,-880 926.258,-886 926.258,-886 926.258,-934 926.258,-934 926.258,-940 920.258,-946 914.258,-946 914.258,-946 824.258,-946 824.258,-946 818.258,-946 812.258,-940 812.258,-934 812.258,-934 812.258,-886 812.258,-886 812.258,-880 818.258,-874 824.258,-874"/>
<text text-anchor="middle" x="869.258" y="-933.2" font-family="Times,serif" font-size="11.00" fill="gray">StorageStrategy</text>
</g>
<g id="clust10" class="cluster"><title>cluster_\Teknoo\MangoPayBundle\Entity</title>
<path fill="none" stroke="gray" d="M44,-1356C44,-1356 970.758,-1356 970.758,-1356 976.758,-1356 982.758,-1362 982.758,-1368 982.758,-1368 982.758,-1694 982.758,-1694 982.758,-1700 976.758,-1706 970.758,-1706 970.758,-1706 44,-1706 44,-1706 38,-1706 32,-1700 32,-1694 32,-1694 32,-1368 32,-1368 32,-1362 38,-1356 44,-1356"/>
<text text-anchor="middle" x="507.379" y="-1693.2" font-family="Times,serif" font-size="11.00" fill="gray">Entity</text>
</g>
<g id="clust11" class="cluster"><title>cluster_\Teknoo\MangoPayBundle\Entity\Interfaces</title>
<path fill="none" stroke="gray" d="M52,-1516C52,-1516 962.758,-1516 962.758,-1516 968.758,-1516 974.758,-1522 974.758,-1528 974.758,-1528 974.758,-1666 974.758,-1666 974.758,-1672 968.758,-1678 962.758,-1678 962.758,-1678 52,-1678 52,-1678 46,-1678 40,-1672 40,-1666 40,-1666 40,-1528 40,-1528 40,-1522 46,-1516 52,-1516"/>
<text text-anchor="middle" x="507.379" y="-1665.2" font-family="Times,serif" font-size="11.00" fill="gray">Interfaces</text>
</g>
<g id="clust12" class="cluster"><title>cluster_\Teknoo\MangoPayBundle\Entity\Interfaces\User</title>
<path fill="none" stroke="gray" d="M60,-1524C60,-1524 954.758,-1524 954.758,-1524 960.758,-1524 966.758,-1530 966.758,-1536 966.758,-1536 966.758,-1638 966.758,-1638 966.758,-1644 960.758,-1650 954.758,-1650 954.758,-1650 60,-1650 60,-1650 54,-1650 48,-1644 48,-1638 48,-1638 48,-1536 48,-1536 48,-1530 54,-1524 60,-1524"/>
<text text-anchor="middle" x="507.379" y="-1637.2" font-family="Times,serif" font-size="11.00" fill="gray">User</text>
</g>
<g id="clust13" class="cluster"><title>cluster_\Teknoo\MangoPayBundle\Transcriber</title>
<path fill="none" stroke="gray" d="M814.258,-794C814.258,-794 924.258,-794 924.258,-794 930.258,-794 936.258,-800 936.258,-806 936.258,-806 936.258,-854 936.258,-854 936.258,-860 930.258,-866 924.258,-866 924.258,-866 814.258,-866 814.258,-866 808.258,-866 802.258,-860 802.258,-854 802.258,-854 802.258,-806 802.258,-806 802.258,-800 808.258,-794 814.258,-794"/>
<text text-anchor="middle" x="869.258" y="-853.2" font-family="Times,serif" font-size="11.00" fill="gray">Transcriber</text>
</g>
<g id="clust14" class="cluster"><title>cluster_\Teknoo\MangoPayBundle\Event</title>
<path fill="none" stroke="gray" d="M807.758,-606C807.758,-606 930.758,-606 930.758,-606 936.758,-606 942.758,-612 942.758,-618 942.758,-618 942.758,-774 942.758,-774 942.758,-780 936.758,-786 930.758,-786 930.758,-786 807.758,-786 807.758,-786 801.758,-786 795.758,-780 795.758,-774 795.758,-774 795.758,-618 795.758,-618 795.758,-612 801.758,-606 807.758,-606"/>
<text text-anchor="middle" x="869.258" y="-773.2" font-family="Times,serif" font-size="11.00" fill="gray">Event</text>
</g>
<g id="clust15" class="cluster"><title>cluster_\Teknoo\MangoPayBundle\Form</title>
<path fill="none" stroke="gray" d="M829.758,-490C829.758,-490 908.758,-490 908.758,-490 914.758,-490 920.758,-496 920.758,-502 920.758,-502 920.758,-586 920.758,-586 920.758,-592 914.758,-598 908.758,-598 908.758,-598 829.758,-598 829.758,-598 823.758,-598 817.758,-592 817.758,-586 817.758,-586 817.758,-502 817.758,-502 817.758,-496 823.758,-490 829.758,-490"/>
<text text-anchor="middle" x="869.258" y="-585.2" font-family="Times,serif" font-size="11.00" fill="gray">Form</text>
</g>
<g id="clust16" class="cluster"><title>cluster_\Teknoo\MangoPayBundle\Form\Type</title>
<path fill="none" stroke="gray" d="M837.758,-498C837.758,-498 900.758,-498 900.758,-498 906.758,-498 912.758,-504 912.758,-510 912.758,-510 912.758,-558 912.758,-558 912.758,-564 906.758,-570 900.758,-570 900.758,-570 837.758,-570 837.758,-570 831.758,-570 825.758,-564 825.758,-558 825.758,-558 825.758,-510 825.758,-510 825.758,-504 831.758,-498 837.758,-498"/>
<text text-anchor="middle" x="869.258" y="-557.2" font-family="Times,serif" font-size="11.00" fill="gray">Type</text>
</g>
<!-- \\Teknoo\\MangoPayBundle\\Exception\\BadMangoReturnException -->
<g id="node1" class="node"><title>\\Teknoo\\MangoPayBundle\\Exception\\BadMangoReturnException</title>
<polygon fill="none" stroke="black" points="955.258,-1320 783.258,-1320 783.258,-1284 955.258,-1284 955.258,-1320"/>
<text text-anchor="middle" x="869.258" y="-1299.2" font-family="Courier,monospace" font-size="11.00">BadMangoReturnException</text>
</g>
<!-- \\InvalidArgumentException -->
<g id="node28" class="node"><title>\\InvalidArgumentException</title>
<ellipse fill="none" stroke="black" cx="469.879" cy="-396" rx="109.681" ry="18"/>
<text text-anchor="middle" x="469.879" y="-392.3" font-family="Times,serif" font-size="14.00" fill="gray">\InvalidArgumentException</text>
</g>
<!-- \\Teknoo\\MangoPayBundle\\Exception\\BadMangoReturnException&#45;&gt;\\InvalidArgumentException -->
<g id="edge1" class="edge"><title>\\Teknoo\\MangoPayBundle\\Exception\\BadMangoReturnException&#45;&gt;\\InvalidArgumentException</title>
<path fill="none" stroke="black" d="M786.904,-1283.88C782.719,-1281.3 778.792,-1278.36 775.258,-1275 514.744,-1027.4 477.145,-545.985 471.768,-424.414"/>
<polygon fill="none" stroke="black" points="475.252,-423.95 471.352,-414.099 468.257,-424.231 475.252,-423.95"/>
</g>
<!-- \\Teknoo\\MangoPayBundle\\Exception\\BadTypeException -->
<g id="node2" class="node"><title>\\Teknoo\\MangoPayBundle\\Exception\\BadTypeException</title>
<polygon fill="none" stroke="black" points="931.758,-1266 806.758,-1266 806.758,-1230 931.758,-1230 931.758,-1266"/>
<text text-anchor="middle" x="869.258" y="-1245.2" font-family="Courier,monospace" font-size="11.00">BadTypeException</text>
</g>
<!-- \\Teknoo\\MangoPayBundle\\Exception\\BadTypeException&#45;&gt;\\InvalidArgumentException -->
<g id="edge2" class="edge"><title>\\Teknoo\\MangoPayBundle\\Exception\\BadTypeException&#45;&gt;\\InvalidArgumentException</title>
<path fill="none" stroke="black" d="M806.435,-1238.83C795.035,-1234.84 783.992,-1229.14 775.258,-1221 527.978,-990.658 480.758,-541.826 472.507,-424.577"/>
<polygon fill="none" stroke="black" points="475.979,-424.03 471.825,-414.284 468.994,-424.493 475.979,-424.03"/>
</g>
<!-- \\Teknoo\\MangoPayBundle\\Exception\\BadMangoEntityException -->
<g id="node3" class="node"><title>\\Teknoo\\MangoPayBundle\\Exception\\BadMangoEntityException</title>
<polygon fill="none" stroke="black" points="955.258,-1212 783.258,-1212 783.258,-1176 955.258,-1176 955.258,-1212"/>
<text text-anchor="middle" x="869.258" y="-1191.2" font-family="Courier,monospace" font-size="11.00">BadMangoEntityException</text>
</g>
<!-- \\Teknoo\\MangoPayBundle\\Exception\\BadMangoEntityException&#45;&gt;\\InvalidArgumentException -->
<g id="edge3" class="edge"><title>\\Teknoo\\MangoPayBundle\\Exception\\BadMangoEntityException&#45;&gt;\\InvalidArgumentException</title>
<path fill="none" stroke="black" d="M791.937,-1175.88C785.886,-1172.56 780.21,-1168.64 775.258,-1164 544.804,-948.122 485.61,-535.512 473.554,-424.238"/>
<polygon fill="none" stroke="black" points="477.02,-423.726 472.502,-414.142 470.058,-424.451 477.02,-423.726"/>
</g>
<!-- \\Teknoo\\MangoPayBundle\\Service\\Interfaces\\StorageServiceInterface -->
<g id="node4" class="node"><title>\\Teknoo\\MangoPayBundle\\Service\\Interfaces\\StorageServiceInterface</title>
<polygon fill="none" stroke="black" points="555.879,-1946 383.879,-1946 383.879,-1910 555.879,-1910 555.879,-1946"/>
<text text-anchor="middle" x="469.879" y="-1925.2" font-family="Courier,monospace" font-size="11.00">StorageServiceInterface</text>
</g>
<!-- \\Teknoo\\MangoPayBundle\\Service\\SessionStorageService -->
<g id="node5" class="node"><title>\\Teknoo\\MangoPayBundle\\Service\\SessionStorageService</title>
<polygon fill="none" stroke="black" points="948.258,-1974 790.258,-1974 790.258,-1938 948.258,-1938 948.258,-1974"/>
<text text-anchor="middle" x="869.258" y="-1953.2" font-family="Courier,monospace" font-size="11.00">SessionStorageService</text>
</g>
<!-- \\Teknoo\\MangoPayBundle\\Service\\SessionStorageService&#45;&gt;\\Teknoo\\MangoPayBundle\\Service\\Interfaces\\StorageServiceInterface -->
<g id="edge4" class="edge"><title>\\Teknoo\\MangoPayBundle\\Service\\SessionStorageService&#45;&gt;\\Teknoo\\MangoPayBundle\\Service\\Interfaces\\StorageServiceInterface</title>
<path fill="none" stroke="black" stroke-dasharray="1,5" d="M790.223,-1950.5C726.047,-1945.98 634.844,-1939.55 566.325,-1934.73"/>
<polygon fill="none" stroke="black" points="566.18,-1931.21 555.959,-1933.99 565.688,-1938.19 566.18,-1931.21"/>
</g>
<!-- \\Teknoo\\MangoPayBundle\\Service\\MangoApiService -->
<g id="node6" class="node"><title>\\Teknoo\\MangoPayBundle\\Service\\MangoApiService</title>
<polygon fill="none" stroke="black" points="928.258,-1920 810.258,-1920 810.258,-1884 928.258,-1884 928.258,-1920"/>
<text text-anchor="middle" x="869.258" y="-1899.2" font-family="Courier,monospace" font-size="11.00">MangoApiService</text>
</g>
<!-- \\Teknoo\\MangoPayBundle\\Service\\CardRegistrationService -->
<g id="node7" class="node"><title>\\Teknoo\\MangoPayBundle\\Service\\CardRegistrationService</title>
<polygon fill="none" stroke="black" points="955.258,-1866 783.258,-1866 783.258,-1830 955.258,-1830 955.258,-1866"/>
<text text-anchor="middle" x="869.258" y="-1845.2" font-family="Courier,monospace" font-size="11.00">CardRegistrationService</text>
</g>
<!-- \\Teknoo\\MangoPayBundle\\Service\\UserService -->
<g id="node8" class="node"><title>\\Teknoo\\MangoPayBundle\\Service\\UserService</title>
<polygon fill="none" stroke="black" points="914.758,-1812 823.758,-1812 823.758,-1776 914.758,-1776 914.758,-1812"/>
<text text-anchor="middle" x="869.258" y="-1791.2" font-family="Courier,monospace" font-size="11.00">UserService</text>
</g>
<!-- \\Teknoo\\MangoPayBundle\\Service\\SecureFlowService -->
<g id="node9" class="node"><title>\\Teknoo\\MangoPayBundle\\Service\\SecureFlowService</title>
<polygon fill="none" stroke="black" points="934.758,-1758 803.758,-1758 803.758,-1722 934.758,-1722 934.758,-1758"/>
<text text-anchor="middle" x="869.258" y="-1737.2" font-family="Courier,monospace" font-size="11.00">SecureFlowService</text>
</g>
<!-- \\Teknoo\\MangoPayBundle\\DependencyInjection\\Configuration -->
<g id="node10" class="node"><title>\\Teknoo\\MangoPayBundle\\DependencyInjection\\Configuration</title>
<polygon fill="none" stroke="black" points="921.258,-1132 817.258,-1132 817.258,-1096 921.258,-1096 921.258,-1132"/>
<text text-anchor="middle" x="869.258" y="-1111.2" font-family="Courier,monospace" font-size="11.00">Configuration</text>
</g>
<!-- \\Symfony\\Component\\Config\\Definition\\ConfigurationInterface -->
<g id="node30" class="node"><title>\\Symfony\\Component\\Config\\Definition\\ConfigurationInterface</title>
<ellipse fill="none" stroke="black" cx="469.879" cy="-342" rx="237.758" ry="18"/>
<text text-anchor="middle" x="469.879" y="-338.3" font-family="Times,serif" font-size="14.00" fill="gray">\Symfony\Component\Config\Definition\ConfigurationInterface</text>
</g>
<!-- \\Teknoo\\MangoPayBundle\\DependencyInjection\\Configuration&#45;&gt;\\Symfony\\Component\\Config\\Definition\\ConfigurationInterface -->
<g id="edge6" class="edge"><title>\\Teknoo\\MangoPayBundle\\DependencyInjection\\Configuration&#45;&gt;\\Symfony\\Component\\Config\\Definition\\ConfigurationInterface</title>
<path fill="none" stroke="black" stroke-dasharray="1,5" d="M817.223,-1110.24C801.52,-1106.49 785.651,-1099.57 775.258,-1087 673.125,-963.502 819.953,-483.434 707.758,-369 702.842,-363.986 697.537,-359.518 691.917,-355.545"/>
<polygon fill="none" stroke="black" points="693.762,-352.57 683.465,-350.074 689.958,-358.447 693.762,-352.57"/>
</g>
<!-- \\Teknoo\\MangoPayBundle\\DependencyInjection\\TeknooMangoPayExtension -->
<g id="node11" class="node"><title>\\Teknoo\\MangoPayBundle\\DependencyInjection\\TeknooMangoPayExtension</title>
<polygon fill="none" stroke="black" points="955.258,-1078 783.258,-1078 783.258,-1042 955.258,-1042 955.258,-1078"/>
<text text-anchor="middle" x="869.258" y="-1057.2" font-family="Courier,monospace" font-size="11.00">TeknooMangoPayExtension</text>
</g>
<!-- \\Symfony\\Component\\HttpKernel\\DependencyInjection\\Extension -->
<g id="node31" class="node"><title>\\Symfony\\Component\\HttpKernel\\DependencyInjection\\Extension</title>
<ellipse fill="none" stroke="black" cx="469.879" cy="-288" rx="236.658" ry="18"/>
<text text-anchor="middle" x="469.879" y="-284.3" font-family="Times,serif" font-size="14.00" fill="gray">\Symfony\ComponentHttpKernel\DependencyInjectionxtension</text>
</g>
<!-- \\Teknoo\\MangoPayBundle\\DependencyInjection\\TeknooMangoPayExtension&#45;&gt;\\Symfony\\Component\\HttpKernel\\DependencyInjection\\Extension -->
<g id="edge7" class="edge"><title>\\Teknoo\\MangoPayBundle\\DependencyInjection\\TeknooMangoPayExtension&#45;&gt;\\Symfony\\Component\\HttpKernel\\DependencyInjection\\Extension</title>
<path fill="none" stroke="black" d="M788.308,-1041.88C783.414,-1038.56 778.975,-1034.63 775.258,-1030 675.348,-905.547 819.511,-428.938 707.758,-315 702.792,-309.937 697.43,-305.431 691.747,-301.43"/>
<polygon fill="none" stroke="black" points="693.502,-298.397 683.2,-295.923 689.711,-304.282 693.502,-298.397"/>
</g>
<!-- \\Teknoo\\MangoPayBundle\\Controller\\MangoPayController -->
<g id="node12" class="node"><title>\\Teknoo\\MangoPayBundle\\Controller\\MangoPayController</title>
<polygon fill="none" stroke="black" points="938.258,-998 800.258,-998 800.258,-962 938.258,-962 938.258,-998"/>
<text text-anchor="middle" x="869.258" y="-977.2" font-family="Courier,monospace" font-size="11.00">MangoPayController</text>
</g>
<!-- \\Symfony\\Bundle\\FrameworkBundle\\Controller\\Controller -->
<g id="node32" class="node"><title>\\Symfony\\Bundle\\FrameworkBundle\\Controller\\Controller</title>
<ellipse fill="none" stroke="black" cx="469.879" cy="-234" rx="219.861" ry="18"/>
<text text-anchor="middle" x="469.879" y="-230.3" font-family="Times,serif" font-size="14.00" fill="gray">\Symfony\Bundle\FrameworkBundle\Controller\Controller</text>
</g>
<!-- \\Teknoo\\MangoPayBundle\\Controller\\MangoPayController&#45;&gt;\\Symfony\\Bundle\\FrameworkBundle\\Controller\\Controller -->
<g id="edge8" class="edge"><title>\\Teknoo\\MangoPayBundle\\Controller\\MangoPayController&#45;&gt;\\Symfony\\Bundle\\FrameworkBundle\\Controller\\Controller</title>
<path fill="none" stroke="black" d="M799.884,-968.325C790.429,-963.98 781.751,-958.059 775.258,-950 678.737,-830.202 815.677,-370.642 707.758,-261 701.601,-254.745 694.84,-249.342 687.616,-244.691"/>
<polygon fill="none" stroke="black" points="689.323,-241.634 678.931,-239.571 685.768,-247.664 689.323,-241.634"/>
</g>
<!-- \\Teknoo\\MangoPayBundle\\StorageStrategy\\LocalStorage -->
<g id="node13" class="node"><title>\\Teknoo\\MangoPayBundle\\StorageStrategy\\LocalStorage</title>
<polygon fill="none" stroke="black" points="918.258,-918 820.258,-918 820.258,-882 918.258,-882 918.258,-918"/>
<text text-anchor="middle" x="869.258" y="-897.2" font-family="Courier,monospace" font-size="11.00">LocalStorage</text>
</g>
<!-- \\MangoPay\\Libraries\\IStorageStrategy -->
<g id="node33" class="node"><title>\\MangoPay\\Libraries\\IStorageStrategy</title>
<ellipse fill="none" stroke="black" cx="469.879" cy="-180" rx="144.874" ry="18"/>
<text text-anchor="middle" x="469.879" y="-176.3" font-family="Times,serif" font-size="14.00" fill="gray">\MangoPayLibraries\IStorageStrategy</text>
</g>
<!-- \\Teknoo\\MangoPayBundle\\StorageStrategy\\LocalStorage&#45;&gt;\\MangoPay\\Libraries\\IStorageStrategy -->
<g id="edge9" class="edge"><title>\\Teknoo\\MangoPayBundle\\StorageStrategy\\LocalStorage&#45;&gt;\\MangoPay\\Libraries\\IStorageStrategy</title>
<path fill="none" stroke="black" stroke-dasharray="1,5" d="M820.084,-895.22C803.448,-891.096 786.247,-883.586 775.258,-870 682.124,-754.855 811.845,-312.347 707.758,-207 671.839,-170.647 615.467,-163.079 566.726,-164.987"/>
<polygon fill="none" stroke="black" points="566.252,-161.507 556.451,-165.531 566.622,-168.497 566.252,-161.507"/>
</g>
<!-- \\Teknoo\\MangoPayBundle\\Entity\\Interfaces\\User\\NaturalUserInterface -->
<g id="node14" class="node"><title>\\Teknoo\\MangoPayBundle\\Entity\\Interfaces\\User\\NaturalUserInterface</title>
<polygon fill="none" stroke="black" points="545.879,-1568 393.879,-1568 393.879,-1532 545.879,-1532 545.879,-1568"/>
<text text-anchor="middle" x="469.879" y="-1547.2" font-family="Courier,monospace" font-size="11.00">NaturalUserInterface</text>
</g>
<!-- \\Teknoo\\MangoPayBundle\\Entity\\Interfaces\\User\\UserInterface -->
<g id="node18" class="node"><title>\\Teknoo\\MangoPayBundle\\Entity\\Interfaces\\User\\UserInterface</title>
<polygon fill="none" stroke="black" points="160,-1595 56,-1595 56,-1559 160,-1559 160,-1595"/>
<text text-anchor="middle" x="108" y="-1574.2" font-family="Courier,monospace" font-size="11.00">UserInterface</text>
</g>
<!-- \\Teknoo\\MangoPayBundle\\Entity\\Interfaces\\User\\NaturalUserInterface&#45;&gt;\\Teknoo\\MangoPayBundle\\Entity\\Interfaces\\User\\UserInterface -->
<g id="edge13" class="edge"><title>\\Teknoo\\MangoPayBundle\\Entity\\Interfaces\\User\\NaturalUserInterface&#45;&gt;\\Teknoo\\MangoPayBundle\\Entity\\Interfaces\\User\\UserInterface</title>
<path fill="none" stroke="black" d="M393.875,-1555.63C327.529,-1560.6 231.928,-1567.78 170.131,-1572.41"/>
<polygon fill="none" stroke="black" points="169.845,-1568.93 160.135,-1573.16 170.369,-1575.91 169.845,-1568.93"/>
</g>
<!-- \\Teknoo\\MangoPayBundle\\Entity\\Interfaces\\User\\AddressInterface -->
<g id="node15" class="node"><title>\\Teknoo\\MangoPayBundle\\Entity\\Interfaces\\User\\AddressInterface</title>
<polygon fill="none" stroke="black" points="931.758,-1622 806.758,-1622 806.758,-1586 931.758,-1586 931.758,-1622"/>
<text text-anchor="middle" x="869.258" y="-1601.2" font-family="Courier,monospace" font-size="11.00">AddressInterface</text>
</g>
<!-- \\Teknoo\\MangoPayBundle\\Entity\\Interfaces\\User\\LegalUserInterface -->
<g id="node16" class="node"><title>\\Teknoo\\MangoPayBundle\\Entity\\Interfaces\\User\\LegalUserInterface</title>
<polygon fill="none" stroke="black" points="538.879,-1622 400.879,-1622 400.879,-1586 538.879,-1586 538.879,-1622"/>
<text text-anchor="middle" x="469.879" y="-1601.2" font-family="Courier,monospace" font-size="11.00">LegalUserInterface</text>
</g>
<!-- \\Teknoo\\MangoPayBundle\\Entity\\Interfaces\\User\\LegalUserInterface&#45;&gt;\\Teknoo\\MangoPayBundle\\Entity\\Interfaces\\User\\UserInterface -->
<g id="edge14" class="edge"><title>\\Teknoo\\MangoPayBundle\\Entity\\Interfaces\\User\\LegalUserInterface&#45;&gt;\\Teknoo\\MangoPayBundle\\Entity\\Interfaces\\User\\UserInterface</title>
<path fill="none" stroke="black" d="M400.765,-1598.89C334.46,-1593.92 234.592,-1586.42 170.6,-1581.62"/>
<polygon fill="none" stroke="black" points="170.492,-1578.1 160.258,-1580.85 169.968,-1585.08 170.492,-1578.1"/>
</g>
<!-- \\Teknoo\\MangoPayBundle\\Entity\\Interfaces\\User\\FullNaturalUserInterface -->
<g id="node17" class="node"><title>\\Teknoo\\MangoPayBundle\\Entity\\Interfaces\\User\\FullNaturalUserInterface</title>
<polygon fill="none" stroke="black" points="958.758,-1568 779.758,-1568 779.758,-1532 958.758,-1532 958.758,-1568"/>
<text text-anchor="middle" x="869.258" y="-1547.2" font-family="Courier,monospace" font-size="11.00">FullNaturalUserInterface</text>
</g>
<!-- \\Teknoo\\MangoPayBundle\\Entity\\Interfaces\\User\\FullNaturalUserInterface&#45;&gt;\\Teknoo\\MangoPayBundle\\Entity\\Interfaces\\User\\NaturalUserInterface -->
<g id="edge15" class="edge"><title>\\Teknoo\\MangoPayBundle\\Entity\\Interfaces\\User\\FullNaturalUserInterface&#45;&gt;\\Teknoo\\MangoPayBundle\\Entity\\Interfaces\\User\\NaturalUserInterface</title>
<path fill="none" stroke="black" d="M779.573,-1550C712.915,-1550 622.135,-1550 556.286,-1550"/>
<polygon fill="none" stroke="black" points="555.939,-1546.5 545.939,-1550 555.939,-1553.5 555.939,-1546.5"/>
</g>
<!-- \\Teknoo\\MangoPayBundle\\Entity\\CardRegistrationResult -->
<g id="node19" class="node"><title>\\Teknoo\\MangoPayBundle\\Entity\\CardRegistrationResult</title>
<polygon fill="none" stroke="black" points="951.758,-1508 786.758,-1508 786.758,-1472 951.758,-1472 951.758,-1508"/>
<text text-anchor="middle" x="869.258" y="-1487.2" font-family="Courier,monospace" font-size="11.00">CardRegistrationResult</text>
</g>
<!-- \\Teknoo\\MangoPayBundle\\Entity\\SecureFlowSession -->
<g id="node20" class="node"><title>\\Teknoo\\MangoPayBundle\\Entity\\SecureFlowSession</title>
<polygon fill="none" stroke="black" points="934.758,-1454 803.758,-1454 803.758,-1418 934.758,-1418 934.758,-1454"/>
<text text-anchor="middle" x="869.258" y="-1433.2" font-family="Courier,monospace" font-size="11.00">SecureFlowSession</text>
</g>
<!-- \\Teknoo\\MangoPayBundle\\Entity\\CardRegistrationSession -->
<g id="node21" class="node"><title>\\Teknoo\\MangoPayBundle\\Entity\\CardRegistrationSession</title>
<polygon fill="none" stroke="black" points="955.258,-1400 783.258,-1400 783.258,-1364 955.258,-1364 955.258,-1400"/>
<text text-anchor="middle" x="869.258" y="-1379.2" font-family="Courier,monospace" font-size="11.00">CardRegistrationSession</text>
</g>
<!-- \\Teknoo\\MangoPayBundle\\Transcriber\\UserTranscriber -->
<g id="node22" class="node"><title>\\Teknoo\\MangoPayBundle\\Transcriber\\UserTranscriber</title>
<polygon fill="none" stroke="black" points="928.258,-838 810.258,-838 810.258,-802 928.258,-802 928.258,-838"/>
<text text-anchor="middle" x="869.258" y="-817.2" font-family="Courier,monospace" font-size="11.00">UserTranscriber</text>
</g>
<!-- \\Teknoo\\MangoPayBundle\\Event\\MangoPayEvents -->
<g id="node23" class="node"><title>\\Teknoo\\MangoPayBundle\\Event\\MangoPayEvents</title>
<polygon fill="none" stroke="black" points="924.758,-758 813.758,-758 813.758,-722 924.758,-722 924.758,-758"/>
<text text-anchor="middle" x="869.258" y="-737.2" font-family="Courier,monospace" font-size="11.00">MangoPayEvents</text>
</g>
<!-- \\Teknoo\\MangoPayBundle\\Event\\SecureFlowEvent -->
<g id="node24" class="node"><title>\\Teknoo\\MangoPayBundle\\Event\\SecureFlowEvent</title>
<polygon fill="none" stroke="black" points="928.258,-704 810.258,-704 810.258,-668 928.258,-668 928.258,-704"/>
<text text-anchor="middle" x="869.258" y="-683.2" font-family="Courier,monospace" font-size="11.00">SecureFlowEvent</text>
</g>
<!-- \\Symfony\\Component\\EventDispatcher\\Event -->
<g id="node34" class="node"><title>\\Symfony\\Component\\EventDispatcher\\Event</title>
<ellipse fill="none" stroke="black" cx="469.879" cy="-126" rx="157.872" ry="18"/>
<text text-anchor="middle" x="469.879" y="-122.3" font-family="Times,serif" font-size="14.00" fill="gray">\Symfony\ComponentventDispatchervent</text>
</g>
<!-- \\Teknoo\\MangoPayBundle\\Event\\SecureFlowEvent&#45;&gt;\\Symfony\\Component\\EventDispatcher\\Event -->
<g id="edge10" class="edge"><title>\\Teknoo\\MangoPayBundle\\Event\\SecureFlowEvent&#45;&gt;\\Symfony\\Component\\EventDispatcher\\Event</title>
<path fill="none" stroke="black" d="M810.231,-680.02C797.022,-675.977 784.249,-669.451 775.258,-659 627.295,-487.005 869.714,-311.888 707.758,-153 673.281,-119.176 621.019,-110.577 574.348,-111.235"/>
<polygon fill="none" stroke="black" points="574.071,-107.741 564.174,-111.523 574.269,-114.739 574.071,-107.741"/>
</g>
<!-- \\Teknoo\\MangoPayBundle\\Event\\RegistrationEvent -->
<g id="node25" class="node"><title>\\Teknoo\\MangoPayBundle\\Event\\RegistrationEvent</title>
<polygon fill="none" stroke="black" points="934.758,-650 803.758,-650 803.758,-614 934.758,-614 934.758,-650"/>
<text text-anchor="middle" x="869.258" y="-629.2" font-family="Courier,monospace" font-size="11.00">RegistrationEvent</text>
</g>
<!-- \\Teknoo\\MangoPayBundle\\Event\\RegistrationEvent&#45;&gt;\\Symfony\\Component\\EventDispatcher\\Event -->
<g id="edge11" class="edge"><title>\\Teknoo\\MangoPayBundle\\Event\\RegistrationEvent&#45;&gt;\\Symfony\\Component\\EventDispatcher\\Event</title>
<path fill="none" stroke="black" d="M823.31,-613.939C805.633,-604.599 786.835,-591.438 775.258,-574 670.446,-416.123 844.768,-283.915 707.758,-153 673.676,-120.434 623.038,-111.5 577.319,-111.617"/>
<polygon fill="none" stroke="black" points="576.978,-108.122 567.039,-111.792 577.098,-115.121 576.978,-108.122"/>
</g>
<!-- \\Teknoo\\MangoPayBundle\\Form\\Type\\CardType -->
<g id="node26" class="node"><title>\\Teknoo\\MangoPayBundle\\Form\\Type\\CardType</title>
<polygon fill="none" stroke="black" points="904.758,-542 833.758,-542 833.758,-506 904.758,-506 904.758,-542"/>
<text text-anchor="middle" x="869.258" y="-521.2" font-family="Courier,monospace" font-size="11.00">CardType</text>
</g>
<!-- \\Symfony\\Component\\Form\\AbstractType -->
<g id="node35" class="node"><title>\\Symfony\\Component\\Form\\AbstractType</title>
<ellipse fill="none" stroke="black" cx="469.879" cy="-72" rx="161.671" ry="18"/>
<text text-anchor="middle" x="469.879" y="-68.3" font-family="Times,serif" font-size="14.00" fill="gray">\Symfony\Component\Form\AbstractType</text>
</g>
<!-- \\Teknoo\\MangoPayBundle\\Form\\Type\\CardType&#45;&gt;\\Symfony\\Component\\Form\\AbstractType -->
<g id="edge12" class="edge"><title>\\Teknoo\\MangoPayBundle\\Form\\Type\\CardType&#45;&gt;\\Symfony\\Component\\Form\\AbstractType</title>
<path fill="none" stroke="black" d="M833.558,-524.703C813.747,-523.176 789.995,-517.749 775.258,-502 651.172,-369.397 839.497,-224.003 707.758,-99 674.261,-67.2156 624.972,-58.0062 580.018,-57.7322"/>
<polygon fill="none" stroke="black" points="579.871,-54.2332 569.901,-57.8175 579.93,-61.233 579.871,-54.2332"/>
</g>
<!-- \\Teknoo\\MangoPayBundle\\TeknooMangoPayBundle -->
<g id="node27" class="node"><title>\\Teknoo\\MangoPayBundle\\TeknooMangoPayBundle</title>
<polygon fill="none" stroke="black" points="945.258,-482 793.258,-482 793.258,-446 945.258,-446 945.258,-482"/>
<text text-anchor="middle" x="869.258" y="-461.2" font-family="Courier,monospace" font-size="11.00">TeknooMangoPayBundle</text>
</g>
<!-- \\Symfony\\Component\\HttpKernel\\Bundle\\Bundle -->
<g id="node29" class="node"><title>\\Symfony\\Component\\HttpKernel\\Bundle\\Bundle</title>
<ellipse fill="none" stroke="black" cx="469.879" cy="-18" rx="184.667" ry="18"/>
<text text-anchor="middle" x="469.879" y="-14.3" font-family="Times,serif" font-size="14.00" fill="gray">\Symfony\ComponentHttpKernel\Bundle\Bundle</text>
</g>
<!-- \\Teknoo\\MangoPayBundle\\TeknooMangoPayBundle&#45;&gt;\\Symfony\\Component\\HttpKernel\\Bundle\\Bundle -->
<g id="edge5" class="edge"><title>\\Teknoo\\MangoPayBundle\\TeknooMangoPayBundle&#45;&gt;\\Symfony\\Component\\HttpKernel\\Bundle\\Bundle</title>
<path fill="none" stroke="black" d="M867.571,-445.92C863.996,-379.721 841.991,-149.015 707.758,-45 694.685,-34.8698 679.922,-27.2442 664.315,-21.588"/>
<polygon fill="none" stroke="black" points="665.09,-18.157 654.496,-18.316 662.877,-24.798 665.09,-18.157"/>
</g>
</g>
</svg>
